# xmcd
#
# Track frame offsets: 
#        150
#        10682
#        23195
#        38270
#        48992
#        63364
#        74082
#        88720
#        101462
#        118012
#        130460
#        147392
#        160962
#        173355
#        186700
#        197572
#        211250
#        224240
#        237037
#
# Disc length: 3442 seconds
#
# Revision: 5
# Processed by: cddbd v1.5.2PL0 Copyright (c) Steve Scherf et al.
# Submitted via: ExactAudioCopyFreeDBPlugin 1.0
#
DISCID=130d7013
DTITLE=R.L. Burnside - Mississippi Hill Country Blues
DYEAR=1984
DGENRE=Blues
TTITLE0=Miss Maybelle
TTITLE1=House upon the Hill
TTITLE2=Gone So Long
TTITLE3=Skinny Woman
TTITLE4=See What My Buddy Done
TTITLE5=Don't Care How Long You're Gone
TTITLE6=Lost Without Your Love
TTITLE7=Shake 'Em on Down
TTITLE8=Bad Luck and Trouble
TTITLE9=Just Like a Woman
TTITLE10=Greyhound Bus Station
TTITLE11=Crying Won't Make Me Stay
TTITLE12=Rollin' and Tumblin'
TTITLE13=Mellow Peaches
TTITLE14=I Believe
TTITLE15=Poor Boy
TTITLE16=Poor Black Mattie
TTITLE17=Jumper on the Line
TTITLE18=Long Haired Doney
EXTD=
EXTT0=
EXTT1=
EXTT2=
EXTT3=
EXTT4=
EXTT5=
EXTT6=
EXTT7=
EXTT8=
EXTT9=
EXTT10=
EXTT11=
EXTT12=
EXTT13=
EXTT14=
EXTT15=
EXTT16=
EXTT17=
EXTT18=
PLAYORDER=
